# Blender v2.79 (sub 0) OBJ File: ''
# www.blender.org
mtllib Ruka_obj.mtl
o Ruka_stl_Ruka_stl.001
v -6.496063 0.196850 0.787402
v -6.587544 0.174302 0.787402
v -6.496063 -0.000000 0.787402
v -6.300648 0.023728 0.787402
v -6.334058 0.111824 0.787402
v -6.404582 0.174302 0.787402
v -6.448954 -0.191130 0.787402
v -6.365527 -0.147345 0.787402
v -6.312005 -0.069804 0.787402
v -6.680121 -0.069804 0.787402
v -6.626599 -0.147345 0.787402
v -6.543172 -0.191130 0.787402
v -6.658068 0.111824 0.787402
v -6.691478 0.023728 0.787402
v -6.496063 -0.196850 0.196850
v -6.448954 -0.191130 0.196850
v -6.365527 -0.147345 0.196850
v -6.312005 -0.069804 0.196850
v -6.300648 0.023728 0.196850
v -6.334058 0.111824 0.196850
v -6.404582 0.174302 0.196850
v -6.496063 0.196850 0.196850
v -6.587544 0.174302 0.196850
v -6.658068 0.111824 0.196850
v -6.691478 0.023728 0.196850
v -6.680121 -0.069804 0.196850
v -6.626599 -0.147345 0.196850
v -6.543172 -0.191130 0.196850
v -5.905512 -0.590551 0.196850
v -6.496063 -0.590551 0.196850
v -5.905512 0.590551 0.196850
v -6.752294 -0.532068 0.196850
v -6.957775 -0.368203 0.196850
v -7.071808 -0.131410 0.196850
v -7.071808 0.131410 0.196850
v -6.957775 0.368203 0.196850
v -6.752294 0.532068 0.196850
v -6.496063 0.590551 0.196850
v -6.496063 0.590551 -0.196850
v -6.752294 0.532068 -0.196850
v -6.957775 0.368203 -0.196850
v -7.071808 0.131410 -0.196850
v -7.071808 -0.131410 -0.196850
v -6.957775 -0.368203 -0.196850
v -6.752294 -0.532068 -0.196850
v -6.496063 -0.590551 -0.196850
v -5.314960 -0.590551 0.787402
v -5.314960 0.590551 0.787402
v -5.540955 0.590551 0.742449
v -5.540955 -0.590551 0.742449
v -5.732543 0.590551 0.614433
v -5.732543 -0.590551 0.614433
v -5.860559 0.590551 0.422845
v -5.860559 -0.590551 0.422845
v -1.541029 -0.590551 0.787402
v -1.541029 0.590551 0.787402
v -1.305457 -0.590551 0.738382
v -1.305457 0.590551 0.738382
v -1.108992 -0.590551 0.599461
v -1.108992 0.590551 0.599461
v -0.984252 -0.590551 0.393701
v -0.984252 0.590551 0.393701
v -0.220870 -0.083765 0.393701
v -0.234498 0.028473 0.393701
v -0.194406 0.134189 0.393701
v -0.109777 0.209163 0.393701
v 0.000000 0.590551 0.393701
v 0.000000 0.236220 0.393701
v 0.256231 0.532068 0.393701
v 0.109777 0.209163 0.393701
v 0.461711 0.368203 0.393701
v 0.194406 0.134189 0.393701
v 0.575745 0.131410 0.393701
v 0.234498 0.028473 0.393701
v 0.575745 -0.131410 0.393701
v 0.220870 -0.083765 0.393701
v 0.461711 -0.368203 0.393701
v 0.156643 -0.176814 0.393701
v 0.256231 -0.532068 0.393701
v 0.056531 -0.229356 0.393701
v 0.000000 -0.590551 0.393701
v -0.056531 -0.229356 0.393701
v -0.156643 -0.176814 0.393701
v 0.000000 -0.590551 -0.393701
v 0.256231 -0.532068 -0.393701
v 0.461711 -0.368203 -0.393701
v 0.575745 -0.131410 -0.393701
v 0.575745 0.131410 -0.393701
v 0.461711 0.368203 -0.393701
v 0.256231 0.532068 -0.393701
v -0.000000 0.590551 -0.393701
v 0.109777 0.209163 0.787402
v 0.194406 0.134189 0.787402
v 0.234498 0.028473 0.787402
v 0.220870 -0.083765 0.787402
v 0.156643 -0.176814 0.787402
v 0.056531 -0.229356 0.787402
v -0.056531 -0.229356 0.787402
v -0.156643 -0.176814 0.787402
v -0.220870 -0.083765 0.787402
v -0.234498 0.028473 0.787402
v -0.194406 0.134189 0.787402
v -0.109777 0.209163 0.787402
v -0.000000 0.236220 0.787402
v 0.000000 0.000000 0.787402
v -0.984252 0.590551 -0.393701
v -0.056531 0.229356 -0.393701
v -0.220870 0.083765 -0.393701
v -0.234498 -0.028473 -0.393701
v -0.984252 -0.590551 -0.393701
v -0.156643 0.176814 -0.393701
v -0.194406 -0.134189 -0.393701
v -0.109777 -0.209163 -0.393701
v 0.000000 -0.236220 -0.393701
v 0.109777 -0.209163 -0.393701
v 0.194406 -0.134189 -0.393701
v 0.234498 -0.028473 -0.393701
v 0.220870 0.083765 -0.393701
v 0.156643 0.176814 -0.393701
v 0.056531 0.229356 -0.393701
v 0.000000 0.236220 -0.393701
v -1.541029 -0.590551 -0.787402
v -1.541029 0.590551 -0.787402
v -1.305457 0.590551 -0.738382
v -1.305457 -0.590551 -0.738382
v -1.108992 0.590551 -0.599461
v -1.108992 -0.590551 -0.599461
v -5.314960 -0.590551 -0.787402
v -5.314960 0.590551 -0.787402
v -5.905512 -0.590551 -0.196850
v -5.905512 0.590551 -0.196850
v -5.860559 0.590551 -0.422845
v -5.860559 -0.590551 -0.422845
v -5.732543 0.590551 -0.614433
v -5.732543 -0.590551 -0.614433
v -5.540955 0.590551 -0.742449
v -5.540955 -0.590551 -0.742449
v -6.312005 0.069804 -0.196850
v -6.365527 0.147345 -0.196850
v -6.300648 -0.023728 -0.196850
v -6.334058 -0.111824 -0.196850
v -6.448954 0.191130 -0.196850
v -6.496063 0.196850 -0.196850
v -6.543172 0.191130 -0.196850
v -6.626599 0.147345 -0.196850
v -6.680121 0.069804 -0.196850
v -6.691478 -0.023728 -0.196850
v -6.658068 -0.111824 -0.196850
v -6.587544 -0.174302 -0.196850
v -6.496063 -0.196850 -0.196850
v -6.404582 -0.174302 -0.196850
v -6.448954 0.191130 -0.787402
v -6.496063 0.196850 -0.787402
v -6.543172 0.191130 -0.787402
v -6.626599 0.147345 -0.787402
v -6.680121 0.069804 -0.787402
v -6.691478 -0.023728 -0.787402
v -6.658068 -0.111824 -0.787402
v -6.587544 -0.174302 -0.787402
v -6.496063 -0.196850 -0.787402
v -6.404582 -0.174302 -0.787402
v -6.334058 -0.111824 -0.787402
v -6.300648 -0.023728 -0.787402
v -6.312005 0.069804 -0.787402
v -6.365527 0.147345 -0.787402
v -6.496063 -0.000000 -0.787402
v 0.056531 0.229356 -0.787402
v 0.000000 0.236220 -0.787402
v -0.056531 0.229356 -0.787402
v -0.156643 0.176814 -0.787402
v -0.220870 0.083765 -0.787402
v -0.234498 -0.028473 -0.787402
v -0.194406 -0.134189 -0.787402
v -0.109777 -0.209163 -0.787402
v -0.000000 -0.236220 -0.787402
v 0.109777 -0.209163 -0.787402
v 0.194406 -0.134189 -0.787402
v 0.234498 -0.028473 -0.787402
v 0.220870 0.083765 -0.787402
v 0.156643 0.176814 -0.787402
v 0.000000 0.000000 -0.787402
v -1.181102 0.590551 -0.196850
v -5.678693 0.590551 0.347513
v -5.708662 0.590551 0.196850
v -5.708662 0.590551 -0.196850
v -5.678693 0.590551 -0.347513
v -5.593349 0.590551 -0.475239
v -5.465623 0.590551 -0.560583
v -5.314960 0.590551 -0.590551
v -1.574803 0.590551 -0.590551
v -1.424140 0.590551 -0.560583
v -1.296415 0.590551 -0.475239
v -1.211071 0.590551 -0.347513
v -1.181102 0.590551 0.196850
v -1.211071 0.590551 0.347513
v -1.296415 0.590551 0.475239
v -1.424140 0.590551 0.560583
v -1.574803 0.590551 0.590551
v -5.314960 0.590551 0.590551
v -5.465623 0.590551 0.560583
v -5.593349 0.590551 0.475239
v -1.181102 -0.590551 0.196850
v -1.181102 -0.590551 -0.196850
v -1.211071 -0.590551 -0.347513
v -1.296415 -0.590551 -0.475239
v -1.424140 -0.590551 -0.560583
v -1.574803 -0.590551 -0.590551
v -5.314960 -0.590551 -0.590551
v -5.465623 -0.590551 -0.560583
v -5.593349 -0.590551 -0.475239
v -5.678693 -0.590551 -0.347513
v -5.708662 -0.590551 -0.196850
v -5.708662 -0.590551 0.196850
v -5.678693 -0.590551 0.347513
v -5.593349 -0.590551 0.475239
v -5.465623 -0.590551 0.560583
v -5.314960 -0.590551 0.590551
v -1.574803 -0.590551 0.590551
v -1.424140 -0.590551 0.560583
v -1.296415 -0.590551 0.475239
v -1.211071 -0.590551 0.347513
vn 0.0000 0.0000 1.0000
vn 0.1205 -0.9927 0.0000
vn 0.4647 -0.8855 0.0000
vn 0.8230 -0.5681 0.0000
vn 0.9927 -0.1205 0.0000
vn 0.9350 0.3546 0.0000
vn 0.6631 0.7485 0.0000
vn 0.2393 0.9709 0.0000
vn -0.2393 0.9709 0.0000
vn -0.6631 0.7485 0.0000
vn -0.9350 0.3546 0.0000
vn -0.9927 -0.1205 0.0000
vn -0.8230 -0.5681 0.0000
vn -0.4647 -0.8855 0.0000
vn -0.1205 -0.9927 0.0000
vn 0.0000 -1.0000 0.0097
vn -0.2225 0.9749 0.0000
vn -0.6235 0.7818 0.0000
vn -0.9010 0.4339 0.0000
vn -1.0000 0.0000 0.0000
vn -0.9010 -0.4339 0.0000
vn -0.6235 -0.7818 0.0000
vn -0.2225 -0.9749 0.0000
vn -0.1951 0.0000 0.9808
vn -0.5556 0.0000 0.8315
vn -0.8315 0.0000 0.5556
vn -0.9808 0.0000 0.1951
vn 0.2037 0.0000 0.9790
vn 0.5774 0.0000 0.8165
vn 0.8551 0.0000 0.5184
vn 0.2225 -0.9749 0.0000
vn 0.6235 -0.7818 0.0000
vn 0.9010 -0.4339 0.0000
vn 1.0000 0.0000 0.0000
vn 0.9010 0.4339 0.0000
vn 0.6235 0.7818 0.0000
vn 0.2225 0.9749 0.0000
vn 0.0000 -1.0000 0.0000
vn 0.0000 0.0000 -1.0000
vn 0.2037 0.0000 -0.9790
vn 0.5774 0.0000 -0.8165
vn 0.8551 0.0000 -0.5184
vn -0.9808 0.0000 -0.1951
vn -0.8315 0.0000 -0.5556
vn -0.5556 0.0000 -0.8315
vn -0.1951 0.0000 -0.9808
vn 0.1205 0.9927 0.0000
vn -0.1205 0.9927 0.0000
vn -0.4647 0.8855 0.0000
vn -0.8230 0.5681 0.0000
vn -0.9927 0.1205 0.0000
vn -0.9350 -0.3546 0.0000
vn -0.6631 -0.7485 0.0000
vn -0.2393 -0.9709 0.0000
vn 0.2393 -0.9709 0.0000
vn 0.6631 -0.7485 0.0000
vn 0.9350 -0.3546 0.0000
vn 0.9927 0.1205 0.0000
vn 0.8230 0.5681 0.0000
vn 0.4647 0.8855 0.0000
vn 0.0000 1.0000 0.0000
vn 0.1951 0.0000 -0.9808
vn 0.5556 0.0000 -0.8315
vn 0.8315 0.0000 -0.5556
vn 0.9808 0.0000 -0.1951
vn 0.9808 0.0000 0.1951
vn 0.8315 0.0000 0.5556
vn 0.5556 0.0000 0.8315
vn 0.1951 0.0000 0.9808
usemtl None
s off
f 1//1 2//1 3//1
f 4//1 5//1 3//1
f 5//1 6//1 3//1
f 6//1 1//1 3//1
f 7//1 8//1 3//1
f 8//1 9//1 3//1
f 9//1 4//1 3//1
f 10//1 11//1 3//1
f 11//1 12//1 3//1
f 12//1 7//1 3//1
f 3//1 2//1 13//1
f 13//1 14//1 3//1
f 14//1 10//1 3//1
f 15//2 16//2 7//2
f 7//3 16//3 17//3
f 17//3 8//3 7//3
f 8//4 17//4 18//4
f 18//4 9//4 8//4
f 9//5 18//5 19//5
f 19//5 4//5 9//5
f 4//6 19//6 20//6
f 20//6 5//6 4//6
f 5//7 20//7 21//7
f 21//7 6//7 5//7
f 6//8 21//8 22//8
f 22//8 1//8 6//8
f 1//9 22//9 23//9
f 23//9 2//9 1//9
f 2//10 23//10 24//10
f 24//10 13//10 2//10
f 13//11 24//11 25//11
f 25//11 14//11 13//11
f 14//12 25//12 26//12
f 26//12 10//12 14//12
f 10//13 26//13 27//13
f 27//13 11//13 10//13
f 11//14 27//14 28//14
f 28//14 12//14 11//14
f 12//15 28//15 15//15
f 7//16 12//16 15//16
f 29//1 18//1 17//1
f 30//1 29//1 17//1
f 19//1 18//1 29//1
f 29//1 31//1 19//1
f 31//1 20//1 19//1
f 17//1 16//1 30//1
f 16//1 15//1 30//1
f 32//1 30//1 15//1
f 15//1 28//1 32//1
f 33//1 32//1 28//1
f 28//1 27//1 33//1
f 34//1 33//1 27//1
f 27//1 26//1 34//1
f 35//1 34//1 26//1
f 26//1 25//1 35//1
f 36//1 35//1 25//1
f 25//1 24//1 36//1
f 37//1 36//1 24//1
f 24//1 23//1 37//1
f 38//1 37//1 23//1
f 23//1 22//1 38//1
f 31//1 38//1 22//1
f 22//1 21//1 31//1
f 21//1 20//1 31//1
f 38//17 39//17 40//17
f 40//17 37//17 38//17
f 37//18 40//18 41//18
f 41//18 36//18 37//18
f 36//19 41//19 42//19
f 42//19 35//19 36//19
f 35//20 42//20 43//20
f 43//20 34//20 35//20
f 34//21 43//21 44//21
f 44//21 33//21 34//21
f 33//22 44//22 45//22
f 45//22 32//22 33//22
f 32//23 45//23 46//23
f 46//23 30//23 32//23
f 47//24 48//24 49//24
f 49//24 50//24 47//24
f 50//25 49//25 51//25
f 51//25 52//25 50//25
f 52//26 51//26 53//26
f 53//26 54//26 52//26
f 54//27 53//27 31//27
f 31//27 29//27 54//27
f 55//1 56//1 48//1
f 48//1 47//1 55//1
f 56//28 55//28 57//28
f 57//28 58//28 56//28
f 58//29 57//29 59//29
f 59//29 60//29 58//29
f 60//30 59//30 61//30
f 61//30 62//30 60//30
f 63//1 64//1 62//1
f 62//1 61//1 63//1
f 64//1 65//1 62//1
f 62//1 65//1 66//1
f 67//1 62//1 66//1
f 66//1 68//1 67//1
f 69//1 67//1 68//1
f 68//1 70//1 69//1
f 71//1 69//1 70//1
f 70//1 72//1 71//1
f 73//1 71//1 72//1
f 72//1 74//1 73//1
f 75//1 73//1 74//1
f 74//1 76//1 75//1
f 77//1 75//1 76//1
f 76//1 78//1 77//1
f 79//1 77//1 78//1
f 78//1 80//1 79//1
f 81//1 79//1 80//1
f 80//1 82//1 81//1
f 61//1 81//1 82//1
f 82//1 83//1 61//1
f 61//1 83//1 63//1
f 81//31 84//31 85//31
f 85//31 79//31 81//31
f 79//32 85//32 86//32
f 86//32 77//32 79//32
f 77//33 86//33 87//33
f 87//33 75//33 77//33
f 75//34 87//34 88//34
f 88//34 73//34 75//34
f 73//35 88//35 89//35
f 89//35 71//35 73//35
f 71//36 89//36 90//36
f 90//36 69//36 71//36
f 69//37 90//37 91//37
f 91//37 67//37 69//37
f 92//8 70//8 68//8
f 70//7 92//7 93//7
f 93//7 72//7 70//7
f 72//6 93//6 94//6
f 94//6 74//6 72//6
f 74//5 94//5 95//5
f 95//5 76//5 74//5
f 76//4 95//4 96//4
f 96//4 78//4 76//4
f 78//3 96//3 97//3
f 97//3 80//3 78//3
f 80//38 97//38 98//38
f 98//38 82//38 80//38
f 82//14 98//14 99//14
f 99//14 83//14 82//14
f 83//13 99//13 100//13
f 100//13 63//13 83//13
f 63//12 100//12 101//12
f 101//12 64//12 63//12
f 64//11 101//11 102//11
f 102//11 65//11 64//11
f 65//10 102//10 103//10
f 103//10 66//10 65//10
f 66//9 103//9 104//9
f 104//9 68//9 66//9
f 68//8 104//8 92//8
f 104//1 103//1 105//1
f 94//1 93//1 105//1
f 93//1 92//1 105//1
f 92//1 104//1 105//1
f 97//1 96//1 105//1
f 96//1 95//1 105//1
f 95//1 94//1 105//1
f 100//1 99//1 105//1
f 99//1 98//1 105//1
f 98//1 97//1 105//1
f 105//1 103//1 102//1
f 102//1 101//1 105//1
f 101//1 100//1 105//1
f 106//39 91//39 107//39
f 108//39 109//39 110//39
f 110//39 106//39 108//39
f 106//39 111//39 108//39
f 107//39 111//39 106//39
f 109//39 112//39 110//39
f 110//39 112//39 113//39
f 84//39 110//39 113//39
f 113//39 114//39 84//39
f 85//39 84//39 114//39
f 114//39 115//39 85//39
f 86//39 85//39 115//39
f 115//39 116//39 86//39
f 87//39 86//39 116//39
f 116//39 117//39 87//39
f 88//39 87//39 117//39
f 117//39 118//39 88//39
f 89//39 88//39 118//39
f 118//39 119//39 89//39
f 90//39 89//39 119//39
f 119//39 120//39 90//39
f 91//39 90//39 120//39
f 120//39 121//39 91//39
f 91//39 121//39 107//39
f 122//40 123//40 124//40
f 124//40 125//40 122//40
f 125//41 124//41 126//41
f 126//41 127//41 125//41
f 127//42 126//42 106//42
f 106//42 110//42 127//42
f 128//39 129//39 123//39
f 123//39 122//39 128//39
f 130//43 131//43 132//43
f 132//43 133//43 130//43
f 133//44 132//44 134//44
f 134//44 135//44 133//44
f 135//45 134//45 136//45
f 136//45 137//45 135//45
f 137//46 136//46 129//46
f 129//46 128//46 137//46
f 131//39 138//39 139//39
f 39//39 131//39 139//39
f 140//39 138//39 131//39
f 131//39 130//39 140//39
f 130//39 141//39 140//39
f 139//39 142//39 39//39
f 142//39 143//39 39//39
f 40//39 39//39 143//39
f 143//39 144//39 40//39
f 41//39 40//39 144//39
f 144//39 145//39 41//39
f 42//39 41//39 145//39
f 145//39 146//39 42//39
f 43//39 42//39 146//39
f 146//39 147//39 43//39
f 44//39 43//39 147//39
f 147//39 148//39 44//39
f 45//39 44//39 148//39
f 148//39 149//39 45//39
f 46//39 45//39 149//39
f 149//39 150//39 46//39
f 130//39 46//39 150//39
f 150//39 151//39 130//39
f 151//39 141//39 130//39
f 152//47 153//47 143//47
f 144//48 143//48 153//48
f 153//48 154//48 144//48
f 144//49 154//49 155//49
f 155//49 145//49 144//49
f 145//50 155//50 156//50
f 156//50 146//50 145//50
f 146//51 156//51 157//51
f 157//51 147//51 146//51
f 147//52 157//52 158//52
f 158//52 148//52 147//52
f 148//53 158//53 159//53
f 159//53 149//53 148//53
f 149//54 159//54 160//54
f 160//54 150//54 149//54
f 150//55 160//55 161//55
f 161//55 151//55 150//55
f 151//56 161//56 162//56
f 162//56 141//56 151//56
f 141//57 162//57 163//57
f 163//57 140//57 141//57
f 140//58 163//58 164//58
f 164//58 138//58 140//58
f 138//59 164//59 165//59
f 165//59 139//59 138//59
f 139//60 165//60 152//60
f 152//60 142//60 139//60
f 143//47 142//47 152//47
f 153//39 152//39 166//39
f 154//39 153//39 166//39
f 157//39 156//39 166//39
f 156//39 155//39 166//39
f 155//39 154//39 166//39
f 160//39 159//39 166//39
f 159//39 158//39 166//39
f 158//39 157//39 166//39
f 163//39 162//39 166//39
f 162//39 161//39 166//39
f 161//39 160//39 166//39
f 166//39 152//39 165//39
f 165//39 164//39 166//39
f 164//39 163//39 166//39
f 167//47 168//47 121//47
f 107//48 121//48 168//48
f 168//48 169//48 107//48
f 107//49 169//49 170//49
f 170//49 111//49 107//49
f 111//50 170//50 171//50
f 171//50 108//50 111//50
f 108//51 171//51 172//51
f 172//51 109//51 108//51
f 109//52 172//52 173//52
f 173//52 112//52 109//52
f 112//53 173//53 174//53
f 174//53 113//53 112//53
f 113//54 174//54 175//54
f 175//54 114//54 113//54
f 114//55 175//55 176//55
f 176//55 115//55 114//55
f 115//56 176//56 177//56
f 177//56 116//56 115//56
f 116//57 177//57 178//57
f 178//57 117//57 116//57
f 117//58 178//58 179//58
f 179//58 118//58 117//58
f 118//59 179//59 180//59
f 180//59 119//59 118//59
f 119//60 180//60 167//60
f 167//60 120//60 119//60
f 121//47 120//47 167//47
f 168//39 167//39 181//39
f 169//39 168//39 181//39
f 172//39 171//39 181//39
f 171//39 170//39 181//39
f 170//39 169//39 181//39
f 175//39 174//39 181//39
f 174//39 173//39 181//39
f 173//39 172//39 181//39
f 178//39 177//39 181//39
f 177//39 176//39 181//39
f 176//39 175//39 181//39
f 181//39 167//39 180//39
f 180//39 179//39 181//39
f 179//39 178//39 181//39
f 182//61 91//61 106//61
f 91//61 182//61 62//61
f 62//61 67//61 91//61
f 131//61 183//61 184//61
f 131//61 184//61 185//61
f 132//61 131//61 185//61
f 185//61 186//61 132//61
f 134//61 132//61 186//61
f 186//61 187//61 134//61
f 136//61 134//61 187//61
f 187//61 188//61 136//61
f 129//61 136//61 188//61
f 188//61 189//61 129//61
f 123//61 129//61 189//61
f 189//61 190//61 123//61
f 124//61 123//61 190//61
f 190//61 191//61 124//61
f 126//61 124//61 191//61
f 191//61 192//61 126//61
f 106//61 126//61 192//61
f 192//61 193//61 106//61
f 193//61 182//61 106//61
f 62//61 182//61 194//61
f 194//61 195//61 62//61
f 60//61 62//61 195//61
f 195//61 196//61 60//61
f 58//61 60//61 196//61
f 196//61 197//61 58//61
f 56//61 58//61 197//61
f 197//61 198//61 56//61
f 48//61 56//61 198//61
f 198//61 199//61 48//61
f 49//61 48//61 199//61
f 199//61 200//61 49//61
f 51//61 49//61 200//61
f 200//61 201//61 51//61
f 53//61 51//61 201//61
f 201//61 183//61 53//61
f 31//61 53//61 183//61
f 183//61 131//61 31//61
f 38//61 31//61 131//61
f 131//61 39//61 38//61
f 30//38 46//38 130//38
f 130//38 29//38 30//38
f 110//38 84//38 81//38
f 81//38 61//38 110//38
f 110//38 202//38 203//38
f 203//38 204//38 110//38
f 127//38 110//38 204//38
f 204//38 205//38 127//38
f 125//38 127//38 205//38
f 205//38 206//38 125//38
f 122//38 125//38 206//38
f 206//38 207//38 122//38
f 128//38 122//38 207//38
f 207//38 208//38 128//38
f 137//38 128//38 208//38
f 208//38 209//38 137//38
f 135//38 137//38 209//38
f 209//38 210//38 135//38
f 133//38 135//38 210//38
f 210//38 211//38 133//38
f 130//38 133//38 211//38
f 211//38 212//38 130//38
f 130//38 212//38 29//38
f 29//38 212//38 213//38
f 54//38 29//38 213//38
f 213//38 214//38 54//38
f 52//38 54//38 214//38
f 214//38 215//38 52//38
f 50//38 52//38 215//38
f 215//38 216//38 50//38
f 47//38 50//38 216//38
f 216//38 217//38 47//38
f 55//38 47//38 217//38
f 217//38 218//38 55//38
f 57//38 55//38 218//38
f 218//38 219//38 57//38
f 59//38 57//38 219//38
f 219//38 220//38 59//38
f 61//38 59//38 220//38
f 220//38 221//38 61//38
f 221//38 110//38 61//38
f 110//38 221//38 202//38
f 189//1 208//1 207//1
f 207//1 190//1 189//1
f 212//34 185//34 184//34
f 184//34 213//34 212//34
f 198//39 218//39 217//39
f 217//39 199//39 198//39
f 182//20 203//20 202//20
f 202//20 194//20 182//20
f 200//62 199//62 217//62
f 217//62 216//62 200//62
f 201//63 200//63 216//63
f 216//63 215//63 201//63
f 183//64 201//64 215//64
f 215//64 214//64 183//64
f 184//65 183//65 214//65
f 214//65 213//65 184//65
f 195//43 194//43 202//43
f 202//43 221//43 195//43
f 196//44 195//44 221//44
f 221//44 220//44 196//44
f 197//45 196//45 220//45
f 220//45 219//45 197//45
f 198//46 197//46 219//46
f 219//46 218//46 198//46
f 191//24 190//24 207//24
f 207//24 206//24 191//24
f 192//25 191//25 206//25
f 206//25 205//25 192//25
f 193//26 192//26 205//26
f 205//26 204//26 193//26
f 182//27 193//27 204//27
f 204//27 203//27 182//27
f 186//66 185//66 212//66
f 212//66 211//66 186//66
f 187//67 186//67 211//67
f 211//67 210//67 187//67
f 188//68 187//68 210//68
f 210//68 209//68 188//68
f 189//69 188//69 209//69
f 209//69 208//69 189//69
