# Blender v2.79 (sub 0) OBJ File: ''
# www.blender.org
mtllib StipaljkaRnovo_obj.mtl
o stipaljkaRnovo_stl
v -6.124910 -0.091481 -0.196850
v -6.102362 0.000000 -0.196850
v -6.102362 0.000000 -0.511811
v -6.124910 -0.091481 -0.511811
v -6.187389 -0.162005 -0.196850
v -6.187389 -0.162005 -0.511811
v -6.275485 -0.195415 -0.196850
v -6.275485 -0.195415 -0.511811
v -6.369017 -0.184058 -0.196850
v -6.369017 -0.184058 -0.511811
v -6.446557 -0.130536 -0.196850
v -6.446557 -0.130536 -0.511811
v -6.490343 -0.047109 -0.196850
v -6.490343 -0.047109 -0.511811
v -6.490343 0.047109 -0.196850
v -6.490343 0.047109 -0.511811
v -6.446557 0.130536 -0.196850
v -6.446557 0.130536 -0.511811
v -6.369017 0.184058 -0.196850
v -6.369017 0.184058 -0.511811
v -6.275485 0.195415 -0.196850
v -6.275485 0.195415 -0.511811
v -6.187389 0.162005 -0.196850
v -6.187389 0.162005 -0.511811
v -6.124910 0.091481 -0.196850
v -6.124910 0.091481 -0.511811
v -7.086614 -0.393701 -0.511811
v -7.086614 0.393701 -0.511811
v -5.991405 0.245468 -0.511811
v -6.128392 0.354712 -0.511811
v -6.299212 0.393701 -0.511811
v -6.128392 -0.354712 -0.511811
v -6.299212 -0.393701 -0.511811
v -5.991405 -0.245468 -0.511811
v -5.915383 -0.087607 -0.511811
v -5.915383 0.087607 -0.511811
v -6.299212 -0.393701 -0.196850
v -6.128392 -0.354712 -0.196850
v -5.991405 -0.245468 -0.196850
v -5.915383 -0.087607 -0.196850
v -5.915383 0.087607 -0.196850
v -5.991405 0.245468 -0.196850
v -6.128392 0.354712 -0.196850
v -6.299212 0.393701 -0.196850
v -7.086614 0.393701 -0.196850
v -7.086614 -0.393701 -0.196850
v -7.864111 -0.393701 -0.380191
v -7.864111 0.393701 -0.380191
v -8.554965 -0.393701 0.000000
v -8.554965 0.393701 0.000000
v -8.358114 -0.393701 -0.000000
v -8.358114 0.393701 -0.000000
v -8.179111 0.393701 -0.079407
v -7.983285 0.393701 -0.079407
v -7.804282 0.393701 0.000000
v -7.607431 0.393701 0.000000
v -7.365003 0.393701 -0.145996
v -8.179111 -0.393701 -0.079407
v -7.983285 -0.393701 -0.079407
v -7.365003 -0.393701 -0.145996
v -7.607431 -0.393701 0.000000
v -7.804282 -0.393701 0.000000
vn -0.9709 0.2393 0.0000
vn -0.7485 0.6631 0.0000
vn -0.3546 0.9350 0.0000
vn 0.1205 0.9927 0.0000
vn 0.5681 0.8230 0.0000
vn 0.8855 0.4647 0.0000
vn 1.0000 0.0000 0.0000
vn 0.8855 -0.4647 0.0000
vn 0.5681 -0.8230 0.0000
vn 0.1205 -0.9927 0.0000
vn -0.3546 -0.9350 0.0000
vn -0.7485 -0.6631 0.0000
vn -0.9709 -0.2393 0.0000
vn 0.0000 0.0000 -1.0000
vn 0.2225 -0.9749 0.0000
vn 0.6235 -0.7818 0.0000
vn 0.9010 -0.4339 0.0000
vn 0.9010 0.4339 0.0000
vn 0.6235 0.7818 0.0000
vn 0.2225 0.9749 0.0000
vn 0.0000 0.0000 1.0000
vn -0.1669 0.0000 -0.9860
vn -0.4821 0.0000 -0.8761
vn 0.0000 1.0000 0.0000
vn 0.0000 -1.0000 0.0000
vn 0.5159 0.0000 0.8567
vn 0.1797 0.0000 0.9837
vn 0.4055 0.0000 0.9141
vn -0.4055 0.0000 0.9141
usemtl None
s off
f 1//1 2//1 3//1
f 3//1 4//1 1//1
f 5//2 1//2 4//2
f 4//2 6//2 5//2
f 7//3 5//3 6//3
f 6//3 8//3 7//3
f 9//4 7//4 8//4
f 8//4 10//4 9//4
f 11//5 9//5 10//5
f 10//5 12//5 11//5
f 13//6 11//6 12//6
f 12//6 14//6 13//6
f 15//7 13//7 14//7
f 14//7 16//7 15//7
f 17//8 15//8 16//8
f 16//8 18//8 17//8
f 19//9 17//9 18//9
f 18//9 20//9 19//9
f 21//10 19//10 20//10
f 20//10 22//10 21//10
f 23//11 21//11 22//11
f 22//11 24//11 23//11
f 25//12 23//12 24//12
f 24//12 26//12 25//12
f 2//13 25//13 26//13
f 26//13 3//13 2//13
f 27//14 28//14 16//14
f 3//14 26//14 29//14
f 30//14 29//14 26//14
f 26//14 24//14 30//14
f 31//14 30//14 24//14
f 32//14 33//14 8//14
f 8//14 6//14 32//14
f 34//14 32//14 6//14
f 6//14 4//14 34//14
f 35//14 34//14 4//14
f 4//14 3//14 35//14
f 36//14 35//14 3//14
f 29//14 36//14 3//14
f 24//14 22//14 31//14
f 22//14 20//14 31//14
f 28//14 31//14 20//14
f 20//14 18//14 28//14
f 18//14 16//14 28//14
f 16//14 14//14 27//14
f 27//14 14//14 12//14
f 33//14 27//14 12//14
f 12//14 10//14 33//14
f 10//14 8//14 33//14
f 37//15 33//15 32//15
f 32//15 38//15 37//15
f 38//16 32//16 34//16
f 34//16 39//16 38//16
f 39//17 34//17 35//17
f 35//17 40//17 39//17
f 40//7 35//7 36//7
f 36//7 41//7 40//7
f 41//18 36//18 29//18
f 29//18 42//18 41//18
f 42//19 29//19 30//19
f 30//19 43//19 42//19
f 43//20 30//20 31//20
f 31//20 44//20 43//20
f 45//21 46//21 13//21
f 37//21 38//21 5//21
f 1//21 5//21 38//21
f 38//21 39//21 1//21
f 2//21 1//21 39//21
f 5//21 7//21 37//21
f 37//21 7//21 9//21
f 46//21 37//21 9//21
f 9//21 11//21 46//21
f 11//21 13//21 46//21
f 13//21 15//21 45//21
f 45//21 15//21 17//21
f 44//21 45//21 17//21
f 39//21 40//21 2//21
f 40//21 41//21 2//21
f 25//21 2//21 41//21
f 41//21 42//21 25//21
f 23//21 25//21 42//21
f 42//21 43//21 23//21
f 21//21 23//21 43//21
f 43//21 44//21 21//21
f 44//21 19//21 21//21
f 17//21 19//21 44//21
f 28//22 27//22 47//22
f 47//22 48//22 28//22
f 48//23 47//23 49//23
f 49//23 50//23 48//23
f 51//21 52//21 50//21
f 50//21 49//21 51//21
f 48//24 50//24 52//24
f 52//24 53//24 48//24
f 48//24 53//24 54//24
f 55//24 56//24 57//24
f 45//24 44//24 31//24
f 31//24 28//24 45//24
f 57//24 45//24 28//24
f 28//24 48//24 57//24
f 57//24 48//24 55//24
f 48//24 54//24 55//24
f 58//25 51//25 49//25
f 49//25 47//25 58//25
f 59//25 58//25 47//25
f 46//25 60//25 47//25
f 47//25 27//25 46//25
f 37//25 46//25 27//25
f 27//25 33//25 37//25
f 47//25 60//25 61//25
f 61//25 62//25 47//25
f 62//25 59//25 47//25
f 57//26 56//26 61//26
f 61//26 60//26 57//26
f 45//27 57//27 60//27
f 60//27 46//27 45//27
f 61//21 56//21 55//21
f 55//21 62//21 61//21
f 53//28 52//28 51//28
f 51//28 58//28 53//28
f 54//21 53//21 58//21
f 58//21 59//21 54//21
f 55//29 54//29 59//29
f 59//29 62//29 55//29
