# Blender v2.79 (sub 0) OBJ File: ''
# www.blender.org
mtllib StipaljkaLnovo_obj.mtl
o stipaljkaLnovo_stl
v -6.124910 0.091481 0.196850
v -6.102362 0.000000 0.196850
v -6.102362 -0.000000 0.511811
v -6.124910 0.091481 0.511811
v -6.187389 0.162005 0.196850
v -6.187389 0.162005 0.511811
v -6.275485 0.195415 0.196850
v -6.275485 0.195415 0.511811
v -6.369017 0.184058 0.196850
v -6.369017 0.184058 0.511811
v -6.446557 0.130536 0.196850
v -6.446557 0.130536 0.511811
v -6.490343 0.047109 0.196850
v -6.490343 0.047109 0.511811
v -6.490343 -0.047109 0.196850
v -6.490343 -0.047109 0.511811
v -6.446557 -0.130536 0.196850
v -6.446557 -0.130536 0.511811
v -6.369017 -0.184058 0.196850
v -6.369017 -0.184058 0.511811
v -6.275485 -0.195415 0.196850
v -6.275485 -0.195415 0.511811
v -6.187389 -0.162005 0.196850
v -6.187389 -0.162005 0.511811
v -6.124910 -0.091481 0.196850
v -6.124910 -0.091481 0.511811
v -5.991405 -0.245468 0.511811
v -6.128392 -0.354712 0.511811
v -6.299212 -0.393701 0.511811
v -7.086614 0.393701 0.511811
v -7.086614 -0.393701 0.511811
v -6.299212 0.393701 0.511811
v -5.915383 -0.087607 0.511811
v -5.915383 0.087607 0.511811
v -5.991405 0.245468 0.511811
v -6.128392 0.354712 0.511811
v -6.299212 0.393701 0.196850
v -6.128392 0.354712 0.196850
v -5.991405 0.245468 0.196850
v -5.915383 0.087607 0.196850
v -5.915383 -0.087607 0.196850
v -5.991405 -0.245468 0.196850
v -6.128392 -0.354712 0.196850
v -6.299212 -0.393701 0.196850
v -7.086614 -0.393701 0.196850
v -7.086614 0.393701 0.196850
v -8.554965 0.393701 -0.000000
v -8.554965 -0.393701 -0.000000
v -7.864111 -0.393701 0.380191
v -7.864111 0.393701 0.380191
v -8.358114 0.393701 0.000000
v -8.358114 -0.393701 0.000000
v -8.179111 0.393701 0.079407
v -7.983285 0.393701 0.079407
v -7.365003 0.393701 0.145996
v -7.607431 0.393701 -0.000000
v -7.804282 0.393701 0.000000
v -8.179111 -0.393701 0.079407
v -7.983285 -0.393701 0.079407
v -7.804282 -0.393701 0.000000
v -7.607431 -0.393701 -0.000000
v -7.365003 -0.393701 0.145996
vn -0.9709 -0.2393 0.0000
vn -0.7485 -0.6631 0.0000
vn -0.3546 -0.9350 0.0000
vn 0.1205 -0.9927 0.0000
vn 0.5681 -0.8230 0.0000
vn 0.8855 -0.4647 0.0000
vn 1.0000 0.0000 0.0000
vn 0.8855 0.4647 0.0000
vn 0.5681 0.8230 0.0000
vn 0.1205 0.9927 0.0000
vn -0.3546 0.9350 0.0000
vn -0.7485 0.6631 0.0000
vn -0.9709 0.2393 0.0000
vn -0.0000 0.0000 1.0000
vn 0.2225 0.9749 0.0000
vn 0.6235 0.7818 0.0000
vn 0.9010 0.4339 0.0000
vn 0.9010 -0.4339 0.0000
vn 0.6235 -0.7818 0.0000
vn 0.2225 -0.9749 0.0000
vn 0.0000 0.0000 -1.0000
vn -0.4821 0.0000 0.8761
vn -0.1669 0.0000 0.9860
vn 0.0000 1.0000 0.0000
vn 0.0000 -1.0000 -0.0000
vn 0.1797 0.0000 -0.9837
vn 0.5159 0.0000 -0.8567
vn -0.4055 0.0000 -0.9141
vn 0.4055 0.0000 -0.9141
usemtl None
s off
f 1//1 2//1 3//1
f 3//1 4//1 1//1
f 5//2 1//2 4//2
f 4//2 6//2 5//2
f 7//3 5//3 6//3
f 6//3 8//3 7//3
f 9//4 7//4 8//4
f 8//4 10//4 9//4
f 11//5 9//5 10//5
f 10//5 12//5 11//5
f 13//6 11//6 12//6
f 12//6 14//6 13//6
f 15//7 13//7 14//7
f 14//7 16//7 15//7
f 17//8 15//8 16//8
f 16//8 18//8 17//8
f 19//9 17//9 18//9
f 18//9 20//9 19//9
f 21//10 19//10 20//10
f 20//10 22//10 21//10
f 23//11 21//11 22//11
f 22//11 24//11 23//11
f 25//12 23//12 24//12
f 24//12 26//12 25//12
f 2//13 25//13 26//13
f 26//13 3//13 2//13
f 3//14 26//14 27//14
f 28//14 27//14 26//14
f 26//14 24//14 28//14
f 29//14 28//14 24//14
f 30//14 31//14 16//14
f 16//14 14//14 30//14
f 30//14 14//14 12//14
f 32//14 30//14 12//14
f 27//14 33//14 3//14
f 33//14 34//14 3//14
f 4//14 3//14 34//14
f 34//14 35//14 4//14
f 6//14 4//14 35//14
f 35//14 36//14 6//14
f 8//14 6//14 36//14
f 36//14 32//14 8//14
f 32//14 10//14 8//14
f 12//14 10//14 32//14
f 24//14 22//14 29//14
f 29//14 22//14 20//14
f 31//14 29//14 20//14
f 20//14 18//14 31//14
f 18//14 16//14 31//14
f 37//15 32//15 36//15
f 36//15 38//15 37//15
f 38//16 36//16 35//16
f 35//16 39//16 38//16
f 39//17 35//17 34//17
f 34//17 40//17 39//17
f 40//7 34//7 33//7
f 33//7 41//7 40//7
f 41//18 33//18 27//18
f 27//18 42//18 41//18
f 42//19 27//19 28//19
f 28//19 43//19 42//19
f 43//20 28//20 29//20
f 29//20 44//20 43//20
f 45//21 46//21 13//21
f 37//21 38//21 5//21
f 1//21 5//21 38//21
f 38//21 39//21 1//21
f 2//21 1//21 39//21
f 13//21 15//21 45//21
f 45//21 15//21 17//21
f 44//21 45//21 17//21
f 39//21 40//21 2//21
f 40//21 41//21 2//21
f 25//21 2//21 41//21
f 41//21 42//21 25//21
f 23//21 25//21 42//21
f 42//21 43//21 23//21
f 21//21 23//21 43//21
f 43//21 44//21 21//21
f 44//21 19//21 21//21
f 17//21 19//21 44//21
f 5//21 7//21 37//21
f 37//21 7//21 9//21
f 46//21 37//21 9//21
f 9//21 11//21 46//21
f 11//21 13//21 46//21
f 47//22 48//22 49//22
f 49//22 50//22 47//22
f 50//23 49//23 31//23
f 31//23 30//23 50//23
f 48//21 47//21 51//21
f 51//21 52//21 48//21
f 53//24 51//24 47//24
f 47//24 50//24 53//24
f 54//24 53//24 50//24
f 46//24 55//24 50//24
f 50//24 30//24 46//24
f 37//24 46//24 30//24
f 30//24 32//24 37//24
f 50//24 55//24 56//24
f 56//24 57//24 50//24
f 57//24 54//24 50//24
f 49//25 48//25 52//25
f 52//25 58//25 49//25
f 49//25 58//25 59//25
f 60//25 61//25 62//25
f 45//25 44//25 29//25
f 29//25 31//25 45//25
f 62//25 45//25 31//25
f 31//25 49//25 62//25
f 62//25 49//25 60//25
f 49//25 59//25 60//25
f 55//26 46//26 45//26
f 45//26 62//26 55//26
f 56//27 55//27 62//27
f 62//27 61//27 56//27
f 60//21 57//21 56//21
f 56//21 61//21 60//21
f 54//28 57//28 60//28
f 60//28 59//28 54//28
f 53//21 54//21 59//21
f 59//21 58//21 53//21
f 51//29 53//29 58//29
f 58//29 52//29 51//29
